<?xml version="1.0" encoding="UTF-8" standalone="no"?>
<svg
   xmlns:dc="http://purl.org/dc/elements/1.1/"
   xmlns:cc="http://creativecommons.org/ns#"
   xmlns:rdf="http://www.w3.org/1999/02/22-rdf-syntax-ns#"
   xmlns:svg="http://www.w3.org/2000/svg"
   xmlns="http://www.w3.org/2000/svg"
   id="svg8"
   version="1.1"
   viewBox="0 0 105.83333 12.7"
   height="48"
   width="400">
  <defs
     id="defs2">
    <rect
       id="rect32"
       height="12.662202"
       width="87.879464"
       y="0.094494048"
       x="18.142857" />
  </defs>
  <metadata
     id="metadata5">
    <rdf:RDF>
      <cc:Work
         rdf:about="">
        <dc:format>image/svg+xml</dc:format>
        <dc:type
           rdf:resource="http://purl.org/dc/dcmitype/StillImage" />
        <dc:title></dc:title>
      </cc:Work>
    </rdf:RDF>
  </metadata>
  <g
     id="layer1">
    <path
       id="path36"
       d="M 5.272305,12.35536 C 3.463847,11.693482 1.806747,9.7492094 1.29235,7.6856867 0.99101005,6.4768472 1.826952,6.786605 2.196727,8.0208026 c 0.330692,1.1037539 1.580346,2.7259554 2.464394,3.1990834 0.365956,0.195854 0.621522,0.180106 0.905789,-0.05581 0.32853,-0.272657 0.561548,-0.163094 1.36774,0.643098 l 0.971744,0.971741 -0.78934,-0.01864 C 6.682917,12.750025 5.85278,12.567811 5.272305,12.355363 Z M 4.602615,8.1423136 C 4.169501,7.6204426 4.473918,7.3112423 4.995034,7.7437297 5.214978,7.9262676 5.575043,8.0065019 5.795178,7.9220284 6.373147,7.7002409 6.287223,6.9325486 5.666255,6.7701619 5.375214,6.6940529 5.137089,6.540492 5.137089,6.4289159 c 0,-0.1115762 0.238125,-0.2651372 0.529166,-0.3412461 0.291042,-0.076109 0.529167,-0.3318574 0.529167,-0.5683293 0,-0.5155787 -0.849431,-0.9077571 -0.998369,-0.4609425 -0.05723,0.1717014 -0.282655,0.3121845 -0.500937,0.3121845 -0.624253,0 -0.252639,-0.6348129 0.534451,-0.9129802 C 5.809796,4.2528957 6.044636,4.3084537 6.492278,4.7560962 6.957934,5.2217523 6.99388,5.3965744 6.726638,5.8959193 6.498359,6.3224626 6.491007,6.5657509 6.700078,6.7748213 7.103883,7.1786254 7.060494,7.6427136 6.573399,8.1298086 6.044517,8.6586906 5.03648,8.6650866 4.602616,8.1423126 Z M 7.518339,6.4289159 V 4.3122492 h 0.938068 c 1.901775,0 2.871955,2.0317539 1.688562,3.5361935 -0.42611,0.5417095 -0.780049,0.6971398 -1.5875,0.6971398 h -1.03913 z m 1.965476,1.171726 c 0.832518,-0.832517 0.278258,-2.759226 -0.79375,-2.759226 -0.285582,0 -0.377976,0.3880556 -0.377976,1.5875 0,1.6901289 0.326661,2.0167906 1.171726,1.171726 z M 12.793799,4.9075617 C 12.378987,3.6287071 11.666797,2.6241619 10.67349,1.9168654 10.020804,1.4521126 9.809714,1.4116281 9.477355,1.6874618 9.138468,1.9687132 8.917293,1.861689 8.097618,1.0198206 L 7.121464,0.01723577 8.273717,0.18793544 c 2.691021,0.39865913 4.79101,2.32630576 5.429827,4.98420956 0.276217,1.1492471 -0.526915,0.91567 -0.909745,-0.2645833 z"
       style="fill:#ffffff;stroke-width:0.264583" />
    <text
       transform="translate(0,0.56696429)"
       style="font-style:normal;font-weight:normal;font-size:10.5833px;line-height:1.25;font-family:sans-serif;white-space:pre;shape-inside:url(#rect32);fill:#ffffff;fill-opacity:1;stroke:none;"
       id="text30"
       xml:space="preserve"><tspan
         x="18.142578"
         y="9.7492151"><tspan
           style="fill:#ffffff">Pretty Printers</tspan></tspan></text>
  </g>
</svg>
